<?xml version="1.0" encoding="UTF-8"?>
<svg id="Layer_1" data-name="Layer 1" xmlns="http://www.w3.org/2000/svg" viewBox="0 0 1155 1000">
  <path d="M687.92,0h-220.82L.14,808.77l110.41,191.23h933.89l110.41-191.23L687.92,0ZM296.18,859.96c0,20.07-3.73,37.32-11.16,51.71-7.43,14.41-17.89,25.47-31.36,33.18-13.49,7.73-29.43,11.58-47.82,11.58-19.35,0-36.3-4.38-50.89-13.11-14.59-8.73-25.98-20.86-34.17-36.4-8.17-15.52-12.27-33.5-12.27-53.94s4.14-38.38,12.41-53.82c8.27-15.42,19.71-27.46,34.31-36.11,14.59-8.63,31.46-12.95,50.61-12.95,15.6,0,29.63,2.97,42.1,8.91,12.45,5.96,22.62,14.17,30.53,24.67,7.89,10.52,12.69,22.54,14.35,36.11h-41.27c-1.49-7.43-4.32-13.81-8.49-19.09-4.2-5.3-9.4-9.5-15.62-12.57-6.22-3.05-13.43-4.6-21.6-4.6-11.16,0-20.78,2.71-28.87,8.09-8.09,5.4-14.35,13.25-18.81,23.57-4.48,10.32-6.71,22.72-6.71,37.22s2.23,27.56,6.71,38.06c4.46,10.5,10.76,18.53,18.95,24.11,8.17,5.58,17.85,8.37,29.01,8.37s20.15-2.41,27.6-7.25c7.43-4.84,13.09-11.94,17-21.34,2.15-5.16,3.67-10.98,4.64-17.42h-47.3v-32.34h88.11v15.34ZM423.88,953.65l-58.68-82.81h-5.72v82.81h-42.4v-200.75h83.65c13.95,0,26.12,2.45,36.54,7.39,10.4,4.92,18.49,11.84,24.25,20.76,5.76,8.93,8.63,19.33,8.63,31.24s-2.87,21.74-8.63,30.67c-5.76,8.91-13.85,15.8-24.25,20.64-7.69,3.55-16.32,5.8-25.92,6.73l67.73,83.33h-55.21ZM673.15,895.23c-4.66,12.73-11.3,23.65-19.93,32.76-8.65,9.11-18.87,16.12-30.67,21.06-11.8,4.92-24.85,7.39-39.17,7.39s-27.38-2.47-39.19-7.39c-11.8-4.94-21.98-11.94-30.53-21.06-8.55-9.11-15.2-20.07-19.93-32.9-4.74-12.83-7.11-27.04-7.11-42.66,0-20.64,4.04-38.62,12.13-53.96,8.09-15.34,19.43-27.22,34.03-35.67,14.57-8.47,31.36-12.69,50.33-12.69s36.23,4.18,50.75,12.55c14.49,8.35,25.84,20.26,34.01,35.69,8.17,15.42,12.27,33.54,12.27,54.36,0,15.62-2.33,29.79-6.97,42.52ZM862.73,870c0,27.88-6.68,49.26-20.07,64.12-13.37,14.88-33.73,22.32-61.05,22.32s-47.18-7.45-60.65-22.32c-13.49-14.86-20.22-36.42-20.22-64.68v-116.53h42.38v124.62c0,15.62,3.49,27.1,10.46,34.43,6.97,7.35,16.4,11.02,28.31,11.02s21.5-3.67,28.29-11.02c6.79-7.33,10.18-18.81,10.18-34.43v-124.62h42.38v117.1ZM745.84,714.04c-84.63,0-155.04-61.95-168.33-142.89-13.31,80.94-83.71,142.89-168.35,142.89-94.09,0-170.63-76.54-170.63-170.63s76.54-170.63,170.63-170.63c21.24,0,41.57,3.93,60.34,11.06-38.2-31.32-62.63-78.85-62.63-132.01,0-94.07,76.54-170.63,170.63-170.63s170.63,76.57,170.63,170.63c0,53.16-24.45,100.69-62.65,132.01,18.77-7.13,39.11-11.06,60.34-11.06,94.09,0,170.63,76.54,170.63,170.63s-76.54,170.63-170.63,170.63ZM1037.84,848.11c-5.76,9.58-13.85,16.96-24.27,22.16-10.4,5.2-22.76,7.81-37.08,7.81h-45.45v75.56h-42.38v-200.75h87.83c14.49,0,26.96,2.59,37.36,7.79,10.42,5.22,18.45,12.47,24.13,21.76,5.66,9.29,8.49,20.26,8.49,32.9s-2.87,23.19-8.63,32.76Z"/>
  <path d="M637.85,411.39c-31.42,25.76-53.48,62.49-60.34,104.27-6.87-41.78-28.95-78.51-60.36-104.25,18.77,7.11,39.11,11.06,60.36,11.06s41.57-3.95,60.34-11.08Z"/>
  <g>
    <path d="M666.3,197.45c-8.83-15.42-20.96-27.4-36.38-35.95-15.44-8.55-33.28-12.83-53.54-12.83s-37.6,4.28-53.12,12.83c-15.52,8.55-27.64,20.48-36.4,35.81-8.73,15.34-13.09,33.24-13.09,53.68,0,15.44,2.55,29.51,7.67,42.24,5.1,12.75,12.27,23.71,21.46,32.9,9.21,9.19,20.07,16.32,32.62,21.34,12.55,5.02,26.26,7.53,41.13,7.53s28.57-2.51,41.11-7.53c12.55-5.02,23.43-12.15,32.62-21.34,9.21-9.19,16.36-20.15,21.48-32.9,5.12-12.73,7.67-26.72,7.67-41.96,0-20.46-4.42-38.38-13.25-53.82ZM628.38,287.39c-5.1,10.5-12.13,18.73-21.04,24.67-8.93,5.94-19.25,8.91-30.95,8.91s-21.74-2.93-30.67-8.77c-8.91-5.86-15.9-14.03-20.92-24.55-5.02-10.5-7.53-22.81-7.53-36.94s2.47-25.98,7.41-36.09c4.92-10.14,11.84-17.99,20.76-23.57,8.93-5.58,19.25-8.37,30.96-8.37s22.3,2.79,31.24,8.37c8.91,5.58,15.88,13.47,20.9,23.69,5.02,10.24,7.53,22.22,7.53,35.97s-2.55,26.18-7.67,36.68Z"/>
    <path d="M823.61,560.57c-5.02-8.09-11.76-14.37-20.22-18.83-3.05-1.61-6.24-2.93-9.56-3.95,2.07-.7,4.12-1.53,6.08-2.45,7.79-3.71,14.03-9.11,18.67-16.18,4.64-7.07,6.97-15.52,6.97-25.37,0-15.62-5.48-27.96-16.44-37.08-10.98-9.11-25.37-13.67-43.22-13.67h-93.41v200.77h97.04c12.45,0,23.27-2.25,32.48-6.7,9.19-4.46,16.34-10.82,21.46-19.09,5.12-8.27,7.67-17.89,7.67-28.87s-2.51-20.5-7.53-28.57ZM715.42,473.7h41.27c8.53,0,15,2.09,19.37,6.28,4.38,4.18,6.54,10.36,6.54,18.53s-2.27,14.37-6.83,18.55c-4.56,4.18-11.2,6.28-19.93,6.28h-40.43v-49.64ZM780.53,605.45c-4.74,5.12-11.74,7.67-21.04,7.67h-44.06v-59.12h42.66c9.48,0,16.78,2.71,21.88,8.09,5.12,5.4,7.67,12.73,7.67,22.02s-2.37,16.22-7.11,21.34Z"/>
    <path d="M503.6,489.74c-9.19-14.96-22.16-26.5-38.9-34.57-16.72-8.09-36.33-12.15-58.82-12.15h-76.97v200.77h77.25c22.3,0,41.78-4.14,58.4-12.41,16.64-8.27,29.61-19.99,38.9-35.13,9.29-15.16,13.93-32.96,13.93-53.4s-4.6-38.16-13.79-53.12ZM465.96,577.43c-5.3,10.22-13.01,18.27-23.15,24.11-10.14,5.86-22.44,8.79-36.94,8.79h-34.03v-133.84h34.03c14.67,0,27.08,2.79,37.22,8.37,10.12,5.58,17.79,13.29,23.01,23.15,5.2,9.84,7.81,21.28,7.81,34.29s-2.65,24.91-7.95,35.13Z"/>
  </g>
  <path d="M429.18,812.56c0,8.73-2.57,15.52-7.67,20.36-5.12,4.84-12.51,7.25-22.16,7.25h-39.87v-54.92h39.87c9.84,0,17.28,2.37,22.3,7.11,5.02,4.74,7.53,11.48,7.53,20.22Z"/>
  <path d="M637.17,852.15c0,14.49-2.23,27-6.68,37.5-4.46,10.5-10.78,18.69-18.97,24.53-8.17,5.86-17.65,8.79-28.43,8.79s-19.65-2.83-27.74-8.51c-8.09-5.66-14.41-13.79-18.97-24.39-4.56-10.6-6.83-23.23-6.83-37.92s2.23-26.86,6.69-37.08c4.48-10.22,10.74-18.03,18.83-23.43,8.09-5.38,17.42-8.09,28.02-8.09s20.5,2.75,28.57,8.23c8.09,5.48,14.37,13.35,18.83,23.57,4.46,10.22,6.68,22.48,6.68,36.8Z"/>
  <path d="M1004.1,815.35c0,9.29-2.55,16.68-7.67,22.16-5.12,5.48-12.41,8.23-21.88,8.23h-43.5v-60.51h43.5c9.29,0,16.54,2.69,21.74,8.09,5.2,5.38,7.81,12.73,7.81,22.02Z"/>
</svg>