<svg width="64" height="48" viewBox="0 0 64 48" fill="none" xmlns="http://www.w3.org/2000/svg">
<g clip-path="url(#clip0_733_1643)">
<mask id="mask0_733_1643" style="mask-type:luminance" maskUnits="userSpaceOnUse" x="0" y="0" width="64" height="48">
<path d="M64 0H0V48H64V0Z" fill="white"/>
</mask>
<g mask="url(#mask0_733_1643)">
<path d="M62.6739 33.6332C63.3863 34.863 63.3467 36.3855 62.6145 37.5763L61.0907 40.0163L61.8031 43.2761C62.0406 44.4278 61.7438 45.6185 60.9918 46.5555C60.2397 47.473 59.1315 48 57.9244 48H3.95775C2.79015 48 1.70172 47.4925 0.949706 46.6141C0.197696 45.7357 -0.13873 44.584 0.059168 43.4518L1.46424 34.9215C1.5434 34.3945 1.7413 33.9065 2.01835 33.477C1.3455 32.6181 1.08823 31.525 1.26634 30.4514L5.85756 3.96259C6.1742 2.06913 7.81674 0.702725 9.75614 0.702725H21.4519C26.5576 0.702725 29.9812 1.56161 32.1977 3.41602C33.5632 4.54819 35.1068 6.57828 35.2255 9.95527C36.1161 6.96869 37.9169 4.58723 40.549 2.84994C43.4185 0.956486 46.9015 0 50.899 0C53.0165 0 54.9361 0.312322 56.5589 0.897926C58.3399 1.52257 59.8242 2.45954 60.972 3.66978C62.1198 4.86051 62.951 6.26596 63.4457 7.86661C63.9009 9.33062 64.079 10.8922 63.98 12.5124C63.9009 14.1131 62.8718 15.4209 61.4469 15.9479C61.8031 16.4945 62.1 17.0606 62.3573 17.6852C63.0499 19.3054 63.2082 21.2184 62.8322 23.3461C62.2385 26.7621 60.6949 29.5535 58.2608 31.6421H59.2305C60.6553 31.6421 61.9812 32.4034 62.6739 33.6332Z" fill="black"/>
<path d="M18.8 32.1106C18.6813 31.9154 18.6021 31.7007 18.5626 31.4665C18.4636 30.9589 18.4636 30.2757 18.5428 29.2216C18.6219 28.3237 18.7407 27.2891 18.9386 26.157C19.0375 25.6299 19.0969 25.22 19.1167 24.9272L19.2156 23.9317L18.2064 23.8536C17.9887 23.8341 17.7314 23.8341 17.395 23.8341H16.5638L15.2379 31.4469C15.1983 31.6812 15.1192 31.9154 14.9806 32.1106L14.0703 33.5941H17.1773H19.7104L18.8 32.1106ZM18.8 32.1106C18.6813 31.9154 18.6021 31.7007 18.5626 31.4665C18.4636 30.9589 18.4636 30.2757 18.5428 29.2216C18.6219 28.3237 18.7407 27.2891 18.9386 26.157C19.0375 25.6299 19.0969 25.22 19.1167 24.9272L19.2156 23.9317L18.2064 23.8536C17.9887 23.8341 17.7314 23.8341 17.395 23.8341H16.5638L15.2379 31.4469C15.1983 31.6812 15.1192 31.9154 14.9806 32.1106L14.0703 33.5941H17.1773H19.7104L18.8 32.1106ZM59.2305 31.6421H58.2608C60.6949 29.5535 62.2385 26.7621 62.8322 23.3461C63.2082 21.2184 63.0499 19.3054 62.3573 17.6852C62.1 17.0606 61.8031 16.4945 61.4469 15.9479C62.8718 15.4209 63.9009 14.1131 63.98 12.5124C64.079 10.8922 63.9009 9.33062 63.4457 7.86661C62.951 6.26596 62.1198 4.86051 60.972 3.66978C59.8242 2.45954 58.3399 1.52257 56.5589 0.897926C54.9361 0.312322 53.0165 0 50.899 0C46.9015 0 43.4185 0.956486 40.549 2.84994C37.9169 4.58723 36.1161 6.96869 35.2255 9.95527C35.1068 6.57828 33.5632 4.54819 32.1977 3.41602C29.9812 1.56161 26.5576 0.702725 21.4519 0.702725H9.75614C7.81674 0.702725 6.1742 2.06913 5.85756 3.96259L1.26634 30.4514C1.08823 31.525 1.3455 32.6181 2.01835 33.477C1.7413 33.9065 1.5434 34.3945 1.46424 34.9215L0.059168 43.4518C-0.13873 44.584 0.197696 45.7357 0.949706 46.6141C1.70172 47.4925 2.79015 48 3.95775 48H57.9244C59.1315 48 60.2397 47.473 60.9918 46.5555C61.7438 45.6185 62.0406 44.4278 61.8031 43.2761L61.0907 40.0163L62.6145 37.5763C63.3467 36.3855 63.3863 34.863 62.6739 33.6332C61.9812 32.4034 60.6553 31.6421 59.2305 31.6421ZM60.9126 36.5612L58.993 39.6649L59.8637 43.6861C59.9825 44.2521 59.844 44.8573 59.4679 45.3257C59.0919 45.7747 58.518 46.048 57.9244 46.048H3.95775C3.38384 46.048 2.82973 45.7942 2.45373 45.3453C2.07772 44.9158 1.9194 44.3302 1.99856 43.7641L3.42342 35.2338C3.48279 34.8044 3.70048 34.4335 4.01711 34.1212L4.86807 33.3404L3.93796 32.6377C3.93796 32.6377 3.74006 32.4815 3.6609 32.3644C3.28489 31.9349 3.12658 31.3493 3.22553 30.7832L7.79695 4.27491C7.95527 3.33794 8.78644 2.65474 9.75614 2.65474H21.4519C26.0629 2.65474 29.0709 3.37698 30.9114 4.89955C32.1581 5.93412 33.5632 7.92517 33.1872 11.5364L33.0684 12.7271L34.2756 12.61C34.7704 12.5514 35.2849 12.571 35.7598 12.5905L36.6306 12.6686L36.8087 11.8097C37.4024 8.66694 39.0449 6.18788 41.6572 4.47011C44.1903 2.8109 47.2973 1.95201 50.899 1.95201C52.7988 1.95201 54.4611 2.22529 55.886 2.73282C57.3702 3.25986 58.5972 4.02115 59.5273 4.99715C60.4574 5.97316 61.1501 7.14437 61.5459 8.4327C61.9417 9.68198 62.1 11.0094 62.0208 12.4148C61.9615 13.4494 61.0907 14.2497 60.0419 14.2497H57.1723L58.8743 15.9284C59.5669 16.6116 60.1408 17.451 60.5366 18.4075C61.0709 19.7153 61.1897 21.2574 60.873 23.0142C60.2793 26.5279 58.5378 29.2412 55.7079 31.0956C55.3517 31.3298 54.9757 31.5641 54.5997 31.7593L51.1958 33.5941H55.9058C56.0641 33.5941 56.2224 33.6137 56.361 33.6527L56.5984 33.7113L56.8359 33.6527C56.9942 33.6137 57.1525 33.5941 57.3109 33.5941H59.2305C59.9429 33.5941 60.596 33.9845 60.9522 34.5897C61.3084 35.2143 61.2886 35.9561 60.9126 36.5612ZM18.5626 31.4665C18.4636 30.9589 18.4636 30.2757 18.5428 29.2216C18.6219 28.3237 18.7407 27.2891 18.9386 26.157C19.0375 25.6299 19.0969 25.22 19.1167 24.9272L19.2156 23.9317L18.2064 23.8536C17.9887 23.8341 17.7314 23.8341 17.395 23.8341H16.5638L15.2379 31.4469C15.1983 31.6812 15.1192 31.9154 14.9806 32.1106L14.0703 33.5941H17.1773H19.7104L18.8 32.1106C18.6813 31.9154 18.6021 31.7007 18.5626 31.4665Z" fill="#D9D9D9"/>
<path d="M14.8028 35.5459L13.378 38.3373H13.3582L12.8832 35.5459H10.9834L12.052 40.5041L11.4584 44.0958H13.3384L13.9321 40.5041L16.6828 35.5459H14.8028Z" fill="white"/>
<path d="M38.669 27.6014C39.9158 26.4302 40.7469 24.9661 41.2219 23.4436H38.0951C37.8576 24.1268 37.5212 24.849 37.0463 25.4541L35.2058 22.7799C37.2244 21.882 38.8669 20.5351 39.2429 18.5635C39.7574 15.8893 37.7785 14.5229 35.0277 14.5229C32.6134 14.5229 30.0011 16.0259 29.5657 18.3683C29.2887 19.8519 29.8626 20.8669 30.6146 21.9796C28.2992 22.897 26.0629 24.5172 25.6078 26.8791C25.0141 30.0804 27.2503 31.9348 30.5354 31.9348C32.5936 31.9348 34.3153 31.2516 36.0172 29.9243L37.1848 31.6031H41.5979L38.669 27.6014ZM32.8706 18.2512C33.0289 17.3923 33.9195 16.7677 34.7704 16.7677C35.6214 16.7677 36.2942 17.5095 36.1161 18.3683C35.8984 19.6176 34.9485 20.1837 33.8205 20.7888C33.2664 20.008 32.6727 19.3248 32.8706 18.2512ZM31.2083 29.163C29.8428 29.163 28.7939 28.187 29.0314 26.9377C29.2887 25.5713 30.7333 24.6733 32.0988 24.1463L34.533 27.6794C33.5435 28.5578 32.4946 29.163 31.2083 29.163Z" fill="white"/>
<path d="M21.3731 35.9363C20.819 35.5655 20.0076 35.5459 19.315 35.5459H17.2767L15.8716 44.0958H18.4047C18.9786 44.0958 19.5921 44.0372 20.1264 43.6858C20.7399 43.315 21.0763 42.6903 21.2346 41.8509L21.8679 38.0445C22.0064 37.2247 22.0262 36.4048 21.3731 35.9363ZM19.9681 38.1616L19.5129 40.953C19.3546 42.0852 19.2556 42.6317 18.0089 42.5537L18.8994 37.088C19.8295 37.1076 20.1264 37.1661 19.9681 38.1616Z" fill="white"/>
<path d="M7.99511 38.8253H6.70878L7.2431 35.5459H5.36308L3.95801 44.0958H5.83803L6.41193 40.5431H7.71806L7.12437 44.0958H9.00439L10.4293 35.5459H8.54923L7.99511 38.8253Z" fill="white"/>
<path d="M29.6449 6.40278C28.2201 5.21206 25.4693 4.60693 21.452 4.60693H9.75626L5.16504 31.1152H13.2788L14.8818 21.8822H17.3555C18.3252 21.8822 19.0772 21.9603 19.6115 22.1165C20.1459 22.2726 20.5219 22.5264 20.7593 22.8778C20.9968 23.2096 21.1156 23.6781 21.1354 24.2246C21.1354 24.7907 21.0562 25.552 20.8979 26.4695C20.7 27.5626 20.5812 28.5191 20.5219 29.378C20.4427 30.2173 20.4427 30.8029 20.5021 31.1152H25.3506C25.3506 31.1152 25.311 31.0762 25.2912 31.0567C24.3809 29.866 24.0642 28.3239 24.3809 26.6061C24.7965 24.4979 26.3203 22.663 28.7742 21.3747C28.5961 21.0233 28.4576 20.6329 28.3586 20.2425C28.1409 19.9302 27.8837 19.696 27.5868 19.5008C27.191 19.247 26.5973 18.9542 25.8255 18.6419C26.9337 18.31 27.8837 17.783 28.6555 17.0412C29.0117 16.2214 29.546 15.5382 30.1793 14.9721C30.6146 14.1327 30.9313 13.1958 31.1094 12.1612C31.5645 9.50648 31.0698 7.59351 29.6449 6.40278ZM23.3716 13.5667C23.2133 14.4451 22.7977 15.0892 22.0853 15.4796C21.3926 15.87 20.4031 16.0652 19.0772 16.0652H15.8911L16.8014 10.7948H20.5812C21.5707 10.7948 22.3227 11.029 22.8373 11.4975C23.3518 11.966 23.5299 12.6492 23.3716 13.5667Z" fill="#CFCFCF" fill-opacity="0.8"/>
<path d="M45.7937 35.5459L44.3887 44.0958H46.2687L47.6738 35.5459H45.7937Z" fill="white"/>
<path d="M57.311 35.5459L55.3518 38.962H55.3321L55.8862 35.5459H54.0259L52.6011 44.0958H54.4811L54.8373 41.9876L55.3914 41.1092L55.9258 44.0958H57.9245L56.8954 39.3133L59.2306 35.5459H57.311Z" fill="white"/>
<path d="M50.3054 37.2637H52.7198L52.9968 35.5459H48.7024L47.2974 44.0958H51.7303L52.0073 42.378H49.4544L49.7513 40.5431H52.1063L52.3833 38.8253H50.0481L50.3054 37.2637Z" fill="white"/>
<path d="M59.6661 9.0181C59.3494 8.00305 58.8349 7.10513 58.1027 6.34384C57.3704 5.58256 56.4205 4.99695 55.2134 4.56751C54.0062 4.13807 52.5813 3.92334 50.8992 3.92334C47.6933 3.92334 44.9821 4.64559 42.7458 6.1096C40.5294 7.57361 39.1837 9.66226 38.7087 12.3951C38.6098 13.0002 38.5504 13.5663 38.5702 14.0934C39.0254 14.3667 39.4212 14.718 39.718 15.1279C40.2127 15.7721 40.7273 16.8457 40.5492 18.4073C40.6085 18.4464 40.6481 18.5049 40.7075 18.544C41.5189 19.1491 42.3698 19.6371 43.2802 19.9689C44.1905 20.3008 45.3383 20.6521 46.7038 21.023C48.3067 21.4329 49.4546 21.8233 50.1274 22.1942C50.8003 22.5651 51.0971 23.0922 50.9784 23.7754C50.8794 24.3805 50.4836 24.8685 49.8108 25.2198C49.1379 25.5712 48.287 25.7274 47.2579 25.7274C46.3871 25.7274 45.6549 25.5126 45.0612 25.0637C44.4082 24.5952 44.0915 23.8925 44.0915 22.975H42.6865L42.4094 23.8925C41.974 25.3174 41.2616 26.6253 40.3513 27.7379L43.1812 31.6029C43.9926 31.7591 44.8633 31.8372 45.7737 31.8372C49.2962 31.8372 52.2449 31.0564 54.6197 29.4948C56.9944 27.9331 58.4193 25.6688 58.9338 22.7017C59.1713 21.2963 59.0922 20.1251 58.6964 19.1686C58.3006 18.2121 57.7069 17.4313 56.8955 16.8262C56.0841 16.2211 55.2529 15.7526 54.3426 15.4207C53.4521 15.0889 52.3043 14.7375 50.9388 14.3276C49.3358 13.9177 48.188 13.5078 47.4756 13.1369C46.7829 12.766 46.4861 12.2194 46.6048 11.5362C46.7829 10.5212 47.7328 10.0332 49.4348 10.0332C50.2659 10.0332 50.9388 10.1893 51.4533 10.5212C52.047 10.8921 52.3439 11.4972 52.3043 12.317H60.0025C60.0618 11.1458 59.9431 10.0332 59.6265 9.0181H59.6661Z" fill="#CFCFCF" fill-opacity="0.8"/>
<path d="M38.1944 35.5459L37.1455 41.929C37.0861 42.2999 36.8685 42.7489 36.3737 42.7489C35.8394 42.7489 35.78 42.3975 35.8394 41.9876L36.908 35.5459H35.028L33.9989 41.7338C33.7021 43.4906 34.5135 44.291 36.0967 44.291C38.0163 44.291 38.8078 43.1783 39.0453 41.7338L40.0744 35.5459H38.1944Z" fill="white"/>
<path d="M33.0886 44.0958L32.772 35.5459H30.4962L27.3496 44.0958H29.2296L29.7244 42.417H31.2086V44.0958H33.0886ZM30.1795 40.914L31.3471 37.088L31.2482 40.914H30.1598H30.1795Z" fill="white"/>
<path d="M27.8242 37.9079C28.1013 36.2096 27.4482 35.5459 25.9046 35.5459H23.1736L21.7686 44.0958H23.6486L24.2027 40.7188H24.8162C25.2515 40.7578 25.3307 41.0897 25.3109 41.6167C25.2713 42.1437 25.113 42.8465 25.0141 43.5882C24.9943 43.7639 25.0141 43.9201 25.0537 44.0958H27.092V43.9786C27.092 43.9786 27.0128 43.7834 26.9733 43.6858C26.9733 43.1393 27.1909 41.6557 27.2503 40.9725C27.3295 40.3869 27.0128 39.9965 26.5181 39.8794C27.369 39.4695 27.6857 38.8058 27.8242 37.9079ZM25.9442 38.1226C25.8452 38.6496 25.6276 39.1767 25.0932 39.1767H24.4402L24.7964 37.088C25.7265 37.0685 26.1025 37.1076 25.9442 38.1226Z" fill="white"/>
<path d="M42.7856 35.5459H40.9056L39.5005 44.0958H43.6761L43.9532 42.378H41.6576L42.7856 35.5459Z" fill="white"/>
</g>
</g>
<defs>
<clipPath id="clip0_733_1643">
<rect width="64" height="48" fill="white"/>
</clipPath>
</defs>
</svg>
